<?xml version="1.0" standalone="no"?>
<!DOCTYPE svg PUBLIC "-//W3C//DTD SVG 20010904//EN"
 "http://www.w3.org/TR/2001/REC-SVG-20010904/DTD/svg10.dtd">
<svg version="1.0" xmlns="http://www.w3.org/2000/svg"
 width="450.000000pt" height="378.000000pt" viewBox="0 0 450.000000 378.000000"
 preserveAspectRatio="xMidYMid meet">

<g transform="translate(0.000000,378.000000) scale(0.100000,-0.100000)"
fill="#000000" stroke="none">
<path d="M2648 3593 c6 -2 18 -2 25 0 6 3 1 5 -13 5 -14 0 -19 -2 -12 -5z"/>
<path d="M2615 3579 c-4 -6 -5 -12 -2 -15 2 -3 7 2 10 11 7 17 1 20 -8 4z"/>
<path d="M758 2342 c-332 -332 -428 -433 -428 -452 0 -19 95 -119 427 -450
l428 -425 -423 425 c-232 234 -422 433 -422 442 0 32 13 47 215 241 218 211
206 203 298 195 20 -2 4 -19 -248 -276 l-150 -152 405 -403 405 -402 -400 402
-400 403 403 403 c270 270 402 409 402 423 0 27 -30 54 -61 54 -18 0 -125
-101 -451 -428z"/>
<path d="M3242 2758 c-7 -7 -12 -26 -12 -42 0 -27 48 -79 397 -428 l398 -398
-398 -398 c-218 -218 -397 -399 -397 -402 0 -3 181 176 402 397 l403 403 -90
92 c-50 51 -143 147 -208 213 l-117 121 58 2 58 2 207 -201 c168 -163 207
-206 207 -228 0 -21 -77 -103 -428 -454 -235 -235 -425 -427 -422 -427 3 0
197 192 433 428 335 335 427 432 427 452 0 20 -92 117 -428 453 -439 439 -454
451 -490 415z"/>
<path d="M1261 1064 c0 -11 3 -14 6 -6 3 7 2 16 -1 19 -3 4 -6 -2 -5 -13z"/>
<path d="M1236 1025 c-11 -8 -15 -15 -9 -15 6 0 16 7 23 15 16 19 11 19 -14 0z"/>
<path d="M3242 1024 c10 -10 20 -16 22 -13 3 3 -5 11 -17 18 -21 13 -21 12 -5
-5z"/>
<path d="M1818 183 c6 -2 18 -2 25 0 6 3 1 5 -13 5 -14 0 -19 -2 -12 -5z"/>
</g>
</svg>
